{"title":"Dead Bodies 2003 DVDRip Xvid BigPerm LKRG","uid":6638333,"size":1203177235,"categoryP":"video","categoryS":"movies","magnet":"?xt=urn:btih:4ca07b8a1a9acea2cfff7b1a8438c426d77812e1&amp;dn=Dead+Bodies+2003+DVDRip+Xvid+BigPerm+LKRG&amp;tr=udp%3A%2F%2Ftracker.openbittorrent.com%3A80&amp;tr=udp%3A%2F%2Fopen.demonii.com%3A1337&amp;tr=udp%3A%2F%2Ftracker.coppersurfer.tk%3A6969&amp;tr=udp%3A%2F%2Fexodus.desync.com%3A6969","seeders":2,"leechers":0,"uploader":".BONE.","files":2,"time":1314648325,"description":"\nPLOT\n\nSlacker Tommy lives in a rundown flat with his dragon lizard. He gets back together with his annoying\nex-girlfriend, Jean. During a fight Jean accidentally falls, hits her head and dies. Even though it was\nan accident Tommy is afraid of going to jail and decides to hide the body in a local wood, abetted by\nhis friend Noel. Whilst digging the grave he stumbles across another buried corpse.\n &lt;a href=&quot;\nhttp://www.imdb.com/title/tt0349340/&quot; rel=&quot;nofollow&quot; target=&quot;_NEW&quot;&gt;\nhttp://www.imdb.com/title/tt0349340/&lt;/a&gt;\n\nEncoded By .......: BigPerm1828\nRuntime ..........: 1h 23mn\nFile Size ........: 1.12 GB\nResolution .......: 704 x 384\nIMDb URL .........: ttp://www.imdb.com/title/tt0349340/\nGenre ............: Comedy | Drama\nLanguage .........: English\nSubtitles ........: None\nVideo\nID : 0\nFormat : MPEG-4 Visual\nFormat profile : Simple@L3\nFormat settings, BVOP : No\nFormat settings, QPel : No\nFormat settings, GMC : No warppoints\nFormat settings, Matrix : Default (H.263)\nCodec ID : XVID\nCodec ID/Hint : XviD\nDuration : 1h 23mn\nBit rate : 1 716 Kbps\nWidth : 704 pixels\nHeight : 384 pixels\nDisplay aspect ratio : 16:9\nFrame rate : 29.970 fps\nColor space : YUV\nChroma subsampling : 4:2:0\nBit depth : 8 bits\nScan type : Progressive\nCompression mode : Lossy\nBits/(Pixel*Frame) : 0.212\nStream size : 1.00 GiB (89%)\nWriting library : XviD 64\n\nAudio\nID : 1\nFormat : AC-3\nFormat/Info : Audio Coding 3\nMode extension : CM (complete main)\nCodec ID : 2000\nDuration : 1h 23mn\nBit rate mode : Constant\nBit rate : 192 Kbps\nChannel(s) : 2 channels\nChannel positions : Front: L R\nSampling rate : 48.0 KHz\nBit depth : 16 bits\nCompression mode : Lossy\nStream size : 115 MiB (10%)\nAlignment : Aligned on interleaves\nInterleave, duration : 33 ms (1.00 video frame)\nInterleave, preload duration : 512 ms\n\n\n\n\n\n\n","torrent":{"xt":"urn:btih:4ca07b8a1a9acea2cfff7b1a8438c426d77812e1","amp;dn":"Dead+Bodies+2003+DVDRip+Xvid+BigPerm+LKRG","amp;tr":["udp%3A%2F%2Ftracker.openbittorrent.com%3A80","udp%3A%2F%2Fopen.demonii.com%3A1337","udp%3A%2F%2Ftracker.coppersurfer.tk%3A6969","udp%3A%2F%2Fexodus.desync.com%3A6969"],"infoHash":"4ca07b8a1a9acea2cfff7b1a8438c426d77812e1","infoHashBuffer":{"type":"Buffer","data":[76,160,123,138,26,154,206,162,207,255,123,26,132,56,196,38,215,120,18,225]},"announce":[],"urlList":[]}}